<mxfile host="app.diagrams.net" agent="Mozilla/5.0 (Windows NT 10.0; Win64; x64) AppleWebKit/537.36 (KHTML, like Gecko) Chrome/141.0.0.0 Safari/537.36" version="28.2.5">
  <diagram name="Page-1" id="T9Z1MhhdTcCuRDMySiDA">
    <mxGraphModel dx="2422" dy="996" grid="1" gridSize="10" guides="1" tooltips="1" connect="1" arrows="1" fold="1" page="1" pageScale="1" pageWidth="850" pageHeight="1100" math="1" shadow="0">
      <root>
        <mxCell id="0" />
        <mxCell id="1" parent="0" />
        <mxCell id="5raXkf9EhE7PxzVuwtsp-3" value="" style="rounded=0;whiteSpace=wrap;html=1;strokeColor=none;" vertex="1" parent="1">
          <mxGeometry x="-140" y="180" width="750" height="290" as="geometry" />
        </mxCell>
        <mxCell id="5raXkf9EhE7PxzVuwtsp-2" value="$$ SMA_t = \frac{1}{N} \sum_{i=0}^{N-1} P_{t-i} $$" style="text;html=1;align=center;verticalAlign=middle;whiteSpace=wrap;rounded=0;fontSize=50;" vertex="1" parent="1">
          <mxGeometry x="-100" y="220" width="670" height="210" as="geometry" />
        </mxCell>
        <mxCell id="5raXkf9EhE7PxzVuwtsp-4" value="" style="rounded=0;whiteSpace=wrap;html=1;strokeColor=none;" vertex="1" parent="1">
          <mxGeometry x="-240" y="490" width="850" height="300" as="geometry" />
        </mxCell>
        <mxCell id="5raXkf9EhE7PxzVuwtsp-5" value="&lt;div&gt;$$ R_{\text{cumulative}} = \prod_{t=1}^{T} \Bigl( 1 + r_t \cdot s_{t-1} \Bigr) $$&lt;/div&gt;&lt;div&gt;&lt;br&gt;&lt;/div&gt;" style="text;html=1;align=center;verticalAlign=middle;whiteSpace=wrap;rounded=0;fontSize=50;" vertex="1" parent="1">
          <mxGeometry x="-150" y="570" width="670" height="210" as="geometry" />
        </mxCell>
        <mxCell id="5raXkf9EhE7PxzVuwtsp-7" value="" style="rounded=0;whiteSpace=wrap;html=1;strokeColor=none;" vertex="1" parent="1">
          <mxGeometry x="680" y="190" width="850" height="300" as="geometry" />
        </mxCell>
        <mxCell id="5raXkf9EhE7PxzVuwtsp-8" value="&lt;div&gt;$$ P_{\text{accept}} = e^{\frac{\Delta E}{T}} $$&lt;/div&gt;&lt;div&gt;&lt;br&gt;&lt;/div&gt;" style="text;html=1;align=center;verticalAlign=middle;whiteSpace=wrap;rounded=0;fontSize=50;" vertex="1" parent="1">
          <mxGeometry x="770" y="270" width="670" height="210" as="geometry" />
        </mxCell>
        <mxCell id="5raXkf9EhE7PxzVuwtsp-11" value="" style="rounded=0;whiteSpace=wrap;html=1;strokeColor=none;" vertex="1" parent="1">
          <mxGeometry x="700" y="510" width="850" height="300" as="geometry" />
        </mxCell>
        <mxCell id="5raXkf9EhE7PxzVuwtsp-12" value="&lt;div&gt;&lt;div&gt;&lt;div&gt;&lt;div&gt;&lt;div&gt;$$T_{new} = \alpha \cdot T_{current}, \; 0 &amp;lt; \alpha &amp;lt; 1$$&lt;/div&gt;&lt;/div&gt;&lt;/div&gt;&lt;/div&gt;&lt;/div&gt;&lt;div&gt;&lt;br&gt;&lt;/div&gt;" style="text;html=1;align=center;verticalAlign=middle;whiteSpace=wrap;rounded=0;fontSize=50;" vertex="1" parent="1">
          <mxGeometry x="790" y="590" width="670" height="210" as="geometry" />
        </mxCell>
      </root>
    </mxGraphModel>
  </diagram>
</mxfile>
